<svg height="512" viewBox="0 0 512 512" width="512" xmlns="http://www.w3.org/2000/svg"><g stroke-width=".954058"><path d="m87.989576-1.7148437c-35.045835 0-63.726468 31.5093637-63.726468 70.0117187v376.035155c0 38.50236 28.680633 70.01172 63.726468 70.01172h336.020844c35.04584 0 63.72647-31.50936 63.72647-70.01172v-376.035155c0-38.502355-28.68063-70.0117187-63.72647-70.0117187zm0 32.8476557h336.020844c18.99935 0 33.8277 16.290837 33.8277 37.164063v376.035155c0 20.87323-14.82835 37.16406-33.8277 37.16406h-336.020844c-18.999348 0-33.829464-16.29083-33.829464-37.16406v-376.035155c0-20.873226 14.830116-37.164063 33.829464-37.164063z"/><path d="m112.37723 59.126953c-15.857628 0-28.935227 14.367425-28.935227 31.789063v53.957034c0 17.42163 13.077599 31.78906 28.935227 31.78906h287.24377c15.85762 0 28.93522-14.36743 28.93522-31.78906v-53.957034c0-17.421638-13.0776-31.789063-28.93522-31.789063zm0 21.898438h287.24377c5.15995 0 9.0027 4.221758 9.0027 9.890625v53.957034c0 5.66886-3.84275 9.89062-9.0027 9.89062h-287.24377c-5.15995 0-9.00271-4.22176-9.00271-9.89062v-53.957034c0-5.668867 3.84276-9.890625 9.00271-9.890625z"/><path d="m156.65295 89.300781c-15.40236 0-29.95418 9.555699-43.36372 26.187499a7.4745462 8.21175 0 0 0 .63823 11.5918 7.4745462 8.21175 0 0 0 10.55115-.70117c11.76958-14.59778 22.39758-20.65625 32.17434-20.65625s20.40299 6.05847 32.17256 20.65625c13.40955 16.63179 27.96137 26.18945 43.36373 26.18945s29.95419-9.55766 43.36372-26.18945c11.76958-14.59778 22.39759-20.65625 32.17435-20.65625s20.40477 6.05847 32.17435 20.65625c6.29477 7.80739 11.03461 13.7556 15.47739 18.1289 4.44277 4.3733 9.4539 8.06938 15.69784 7.11328 6.24394-.95609 10.11302-5.71976 13.75116-11.22265 3.63814-5.5029 7.42112-12.74279 12.45694-22.28516a7.4745462 8.21175 0 0 0 -2.71823-11.22265 7.4745462 8.21175 0 0 0 -10.21516 2.98437c-5.03582 9.54237-8.80558 16.61475-11.61959 20.87109-2.81401 4.25635-4.29599 4.69798-3.71735 4.60938s-.39035.13714-3.65868-3.08008-7.97017-8.97972-14.26494-16.78711c-13.40954-16.6318-27.96137-26.187499-43.36373-26.187499s-29.95419 9.555698-43.36372 26.187499c-11.76959 14.59777-22.39759 20.65625-32.17435 20.65625s-20.40298-6.05848-32.17256-20.65625c-13.40953-16.631801-27.96137-26.187499-43.36373-26.187499z" stroke-linecap="round" stroke-linejoin="round"/></g><g stroke-width="1.29182" transform="matrix(1 0 0 .94445577 .375948 12.662171)"><path d="m108.61857 191.95819c-13.46232 0-24.556016 12.3964-24.556016 27.43632v35.44747c0 15.03992 11.093696 27.43366 24.556016 27.43366h58.80124c13.4623 0 24.5584-12.39374 24.5584-27.43366v-35.44747c0-15.03992-11.0961-27.43632-24.5584-27.43632zm0 18.37444h58.80124c4.63561 0 8.11133 3.88304 8.11133 9.06188v35.44747c0 5.17884-3.47572 9.05921-8.11133 9.05921h-58.80124c-4.63562 0-8.11134-3.88037-8.11134-9.05921v-35.44747c0-5.17884 3.47572-9.06188 8.11134-9.06188z"/><path d="m226.22343 191.95819c-13.46231 0-24.5584 12.3964-24.5584 27.43632v35.44747c0 15.03992 11.09609 27.43366 24.5584 27.43366h58.80125c13.4623 0 24.55601-12.39374 24.55601-27.43366v-35.44747c0-15.03992-11.09371-27.43632-24.55601-27.43632zm0 18.37444h58.80125c4.6356 0 8.11133 3.88304 8.11133 9.06188v35.44747c0 5.17884-3.47573 9.05921-8.11133 9.05921h-58.80125c-4.63561 0-8.11134-3.88037-8.11134-9.05921v-35.44747c0-5.17884 3.47573-9.06188 8.11134-9.06188z"/><path d="m343.82592 191.95819c-13.46233 0-24.55603 12.3964-24.55603 27.43632v35.44747c0 15.03992 11.0937 27.43366 24.55603 27.43366h58.80361c13.46232 0 24.55602-12.39374 24.55602-27.43366v-35.44747c0-15.03992-11.0937-27.43632-24.55602-27.43632zm0 18.37444h58.80361c4.63562 0 8.10895 3.88304 8.10895 9.06188v35.44747c0 5.17884-3.47333 9.05921-8.10895 9.05921h-58.80361c-4.63562 0-8.11135-3.88037-8.11135-9.05921v-35.44747c0-5.17884 3.47573-9.06188 8.11135-9.06188z"/><path d="m108.61857 284.45709c-13.46232 0-24.556016 12.39641-24.556016 27.43632v35.44481c0 15.03992 11.093696 27.43632 24.556016 27.43632h58.80124c13.4623 0 24.5584-12.3964 24.5584-27.43632v-35.44481c0-15.03991-11.0961-27.43632-24.5584-27.43632zm0 18.37444h58.80124c4.63561 0 8.11133 3.88304 8.11133 9.06188v35.44481c0 5.17884-3.47572 9.06188-8.11133 9.06188h-58.80124c-4.63562 0-8.11134-3.88304-8.11134-9.06188v-35.44481c0-5.17884 3.47572-9.06188 8.11134-9.06188z"/><path d="m226.22343 284.45709c-13.46231 0-24.5584 12.39641-24.5584 27.43632v35.44481c0 15.03992 11.09609 27.43632 24.5584 27.43632h58.80125c13.4623 0 24.55601-12.3964 24.55601-27.43632v-35.44481c0-15.03991-11.09371-27.43632-24.55601-27.43632zm0 18.37444h58.80125c4.6356 0 8.11133 3.88304 8.11133 9.06188v35.44481c0 5.17884-3.47573 9.06188-8.11133 9.06188h-58.80125c-4.63561 0-8.11134-3.88304-8.11134-9.06188v-35.44481c0-5.17884 3.47573-9.06188 8.11134-9.06188z"/><path d="m343.82592 284.45709c-13.46233 0-24.55603 12.39641-24.55603 27.43632v35.44481c0 15.03992 11.0937 27.43632 24.55603 27.43632h58.80361c13.46232 0 24.55602-12.3964 24.55602-27.43632v-35.44481c0-15.03991-11.0937-27.43632-24.55602-27.43632zm0 18.37444h58.80361c4.63562 0 8.10895 3.88304 8.10895 9.06188v35.44481c0 5.17884-3.47333 9.06188-8.10895 9.06188h-58.80361c-4.63562 0-8.11135-3.88304-8.11135-9.06188v-35.44481c0-5.17884 3.47573-9.06188 8.11135-9.06188z"/><path d="m108.61857 376.95599c-13.46232 0-24.556016 12.39374-24.556016 27.43366v35.44747c0 15.03992 11.093696 27.43632 24.556016 27.43632h58.80124c13.4623 0 24.5584-12.3964 24.5584-27.43632v-35.44747c0-15.03992-11.0961-27.43366-24.5584-27.43366zm0 18.37444h58.80124c4.63561 0 8.11133 3.88038 8.11133 9.05922v35.44747c0 5.17885-3.47572 9.06188-8.11133 9.06188h-58.80124c-4.63562 0-8.11134-3.88303-8.11134-9.06188v-35.44747c0-5.17884 3.47572-9.05922 8.11134-9.05922z"/><path d="m226.22343 376.95599c-13.46231 0-24.5584 12.39374-24.5584 27.43366v35.44747c0 15.03992 11.09609 27.43632 24.5584 27.43632h58.80125c13.4623 0 24.55601-12.3964 24.55601-27.43632v-35.44747c0-15.03992-11.09371-27.43366-24.55601-27.43366zm0 18.37444h58.80125c4.6356 0 8.11133 3.88038 8.11133 9.05922v35.44747c0 5.17885-3.47573 9.06188-8.11133 9.06188h-58.80125c-4.63561 0-8.11134-3.88303-8.11134-9.06188v-35.44747c0-5.17884 3.47573-9.05922 8.11134-9.05922z"/><path d="m343.82592 376.95599c-13.46233 0-24.55603 12.39374-24.55603 27.43366v35.44747c0 15.03992 11.0937 27.43632 24.55603 27.43632h58.80361c13.46232 0 24.55602-12.3964 24.55602-27.43632v-35.44747c0-15.03992-11.0937-27.43366-24.55602-27.43366z"/></g></svg>